# File created by Blade
# Date/Time:  Thu Jan 22 19:34:15 2015
# Frame Rate: 120.000 fps
#------------------------------------------------------
:FULLY-SPECIFIED
:DEGREES
1549
root -5.612903 33.169140 -2.887289 8.793567 -7.370647 2.550329
RightUpLeg -4.692552 -2.161520 1.362262
RightLeg 4.596333 -0.000000 -0.000000
RightFoot -13.835855 4.031432 2.762043
RightToeBase -6.938024 -0.000000 0.000000
LeftUpLeg -6.483652 6.847353 -4.937145
LeftLeg 8.211287 -0.000000 -0.000000
LeftFoot -15.083183 5.295224 -14.281196
LeftToeBase -1.170788 -0.000000 0.000000
Spine -7.276683 -0.770979 -2.296699
RightShoulder -19.386593 -13.085947 -25.643032
RightArm 20.908727 23.411730 35.279797
RightForeArm -13.479377 -0.000000 13.805245
RightHand 12.899252 -0.000000 6.044674
RightHandThumb1 -24.326973 -0.000000 -32.862282
LeftShoulder -23.786952 9.019110 30.042924
LeftArm 12.841864 -20.812736 -33.303684
LeftForeArm 24.619901 0.000000 2.187158
LeftHand 0.431697 -0.000000 -3.066154
LeftHandThumb1 -26.253704 0.000000 33.147579
Head -16.018464 10.542098 -3.876634
1550
root -5.615228 33.168452 -2.871731 8.681006 -7.376007 2.559774
RightUpLeg -4.505712 -2.186467 1.328160
RightLeg 4.503638 -0.000000 -0.000000
RightFoot -13.865260 4.112495 2.744122
RightToeBase -7.163098 -0.000000 0.000000
LeftUpLeg -6.511095 6.837680 -4.930985
LeftLeg 8.444299 -0.000000 -0.000000
LeftFoot -15.039761 5.530770 -14.867841
LeftToeBase 1.026537 -0.000000 -0.000000
Spine -7.216397 -0.784581 -2.345519
RightShoulder -19.375584 -12.950957 -25.699570
RightArm 20.936192 23.153552 35.057335
RightForeArm -13.419138 -0.000000 13.395396
RightHand 12.955736 -0.000000 6.387228
RightHandThumb1 -24.326973 -0.000000 -32.862282
LeftShoulder -23.769999 8.910139 30.266790
LeftArm 12.712495 -21.226200 -32.975910
LeftForeArm 24.508592 0.000000 1.936218
LeftHand 0.355980 0.000000 -3.532805
LeftHandThumb1 -26.253704 0.000000 33.147579
Head -15.875659 10.629897 -3.616340
1551
root -5.615272 33.169878 -2.852819 8.547745 -7.370234 2.574835
RightUpLeg -4.326779 -2.336500 1.290465
RightLeg 4.491037 -0.000000 -0.000000
RightFoot -13.811668 4.405975 2.961633
RightToeBase -7.764425 -0.000000 0.000000
LeftUpLeg -6.517059 6.607120 -4.925024
LeftLeg 8.703387 -0.000000 -0.000000
LeftFoot -15.025787 5.907492 -15.328740
LeftToeBase 2.636386 -0.000000 -0.000000
Spine -7.145291 -0.793267 -2.398426
RightShoulder -19.304457 -12.790740 -25.788425
RightArm 20.801842 22.888478 34.830774
RightForeArm -13.482768 -0.000000 13.119262
RightHand 12.823931 -0.000000 6.739063
RightHandThumb1 -24.326973 -0.000000 -32.862282
LeftShoulder -23.746587 8.772182 30.482395
LeftArm 12.582914 -21.616004 -32.638039
LeftForeArm 24.455455 -0.000000 1.711699
LeftHand 0.227360 -0.000000 -3.978385
LeftHandThumb1 -26.253704 0.000000 33.147579
Head -15.716564 10.694685 -3.356884
1552
root -5.610725 33.172701 -2.831018 8.390840 -7.367208 2.620324
RightUpLeg -4.151649 -2.599741 1.217888
RightLeg 4.525571 -0.000000 -0.000000
RightFoot -13.843133 4.741208 3.030115
RightToeBase -8.049872 -0.000000 0.000000
LeftUpLeg -6.491887 6.359943 -4.957379
LeftLeg 8.975113 -0.000000 -0.000000
LeftFoot -14.997051 6.134894 -15.513513
LeftToeBase 4.255637 -0.000000 -0.000000
Spine -7.064812 -0.778875 -2.475904
RightShoulder -19.279468 -12.742044 -25.840728
RightArm 20.785612 22.733506 34.673627
RightForeArm -13.577598 -0.000000 12.799241
RightHand 12.801120 -0.000000 7.111134
RightHandThumb1 -24.326973 -0.000000 -32.862282
LeftShoulder -23.696349 8.622561 30.703814
LeftArm 12.475332 -22.090903 -32.338192
LeftForeArm 24.506821 -0.000000 1.472221
LeftHand 0.098877 -0.000000 -4.396282
LeftHandThumb1 -26.253704 0.000000 33.147579
Head -15.516503 10.730051 -3.111781
1553
root -5.606630 33.180330 -2.807461 8.242658 -7.394719 2.681095
RightUpLeg -3.978708 -2.773851 1.117652
RightLeg 4.538302 -0.000000 -0.000000
RightFoot -13.903062 4.928314 2.888687
RightToeBase -8.151837 -0.000000 0.000000
LeftUpLeg -6.456910 6.169152 -5.004615
LeftLeg 9.237105 -0.000000 -0.000000
LeftFoot -14.936155 6.214370 -15.651955
LeftToeBase 5.382421 -0.000000 -0.000000
Spine -7.012365 -0.748047 -2.587079
RightShoulder -19.262830 -12.730418 -25.849421
RightArm 20.798360 22.563452 34.508791
RightForeArm -13.628735 -0.000000 12.516988
RightHand 12.585771 -0.000000 7.456161
RightHandThumb1 -24.326973 -0.000000 -32.862282
LeftShoulder -23.680101 8.510503 30.910661
LeftArm 12.432801 -22.579929 -32.051419
LeftForeArm 24.496430 -0.000000 1.197289
LeftHand -0.080060 -0.000000 -4.703398
LeftHandThumb1 -26.253704 0.000000 33.147579
Head -15.295370 10.797881 -2.846824
1554
root -5.601295 33.191622 -2.781571 8.091318 -7.461185 2.755318
RightUpLeg -3.800233 -2.908495 0.995120
RightLeg 4.537348 -0.000000 -0.000000
RightFoot -13.912756 5.127981 2.769939
RightToeBase -8.222409 -0.000000 0.000000
LeftUpLeg -6.376219 6.020722 -5.048652
LeftLeg 9.453892 -0.000000 -0.000000
LeftFoot -14.799795 6.299160 -15.725189
LeftToeBase 5.713418 -0.000000 -0.000000
Spine -6.977867 -0.659681 -2.715025
RightShoulder -19.241513 -12.685586 -25.869824
RightArm 20.765295 22.397681 34.370133
RightForeArm -13.698199 -0.000000 12.240507
RightHand 12.507681 0.000000 7.790386
RightHandThumb1 -24.326973 -0.000000 -32.862282
LeftShoulder -23.627501 8.293052 31.125919
LeftArm 12.302545 -22.848789 -31.680142
LeftForeArm 24.419825 0.000000 0.943559
LeftHand -0.210545 -0.000000 -4.942623
LeftHandThumb1 -26.253704 0.000000 33.147579
Head -15.035370 10.830664 -2.611480
